<?xml version="1.0" encoding="UTF-8"?>
<!-- Generator: visioncortex VTracer 0.6.3 -->
<svg version="1.1" xmlns="http://www.w3.org/2000/svg" width="1042" height="1042">
<path d="M0 0 C343.86 0 687.72 0 1042 0 C1042 343.86 1042 687.72 1042 1042 C698.14 1042 354.28 1042 0 1042 C0 698.14 0 354.28 0 0 Z " fill="#FEFEFE" transform="translate(0,0)"/>
<path d="M0 0 C-0.95 1.28 -1.9 2.55 -2.85 3.82 C-3.64 4.89 -3.64 4.89 -4.45 5.98 C-6.43 8.56 -8.58 10.94 -10.81 13.31 C-14.94 17.79 -18.81 22.41 -22.62 27.16 C-25.75 30.89 -29.07 34.44 -32.46 37.94 C-35.93 41.44 -35.93 41.44 -37 46 C-36.11 48.63 -35.17 51.09 -34.06 53.62 C-31 60.8 -31 60.8 -31 63 C-32.05 63 -33.09 63.01 -34.17 63.01 C-89.95 63.34 -137.2 77.91 -177.81 117.56 C-182.92 122.76 -187.51 128.27 -192 134 C-195.3 130.23 -196.86 125.84 -198.69 121.25 C-199.01 120.46 -199.33 119.66 -199.66 118.85 C-200.44 116.9 -201.22 114.95 -202 113 C-202.6 112.95 -203.21 112.9 -203.83 112.85 C-210.13 112.36 -216.42 111.85 -222.72 111.35 C-225.06 111.16 -227.41 110.97 -229.76 110.78 C-233.14 110.52 -236.51 110.25 -239.89 109.97 C-241.47 109.85 -241.47 109.85 -243.08 109.72 C-244.55 109.6 -244.55 109.6 -246.05 109.48 C-246.91 109.41 -247.77 109.34 -248.66 109.27 C-250.85 109.02 -252.88 108.59 -255 108 C-254.93 115.76 -254.84 123.52 -254.74 131.28 C-254.7 133.92 -254.68 136.56 -254.65 139.2 C-254.62 142.99 -254.57 146.79 -254.51 150.58 C-254.51 151.76 -254.5 152.94 -254.49 154.16 C-254.46 155.81 -254.46 155.81 -254.43 157.5 C-254.42 158.47 -254.41 159.43 -254.4 160.43 C-253.94 163.41 -252.86 164.69 -251 167 C-251.24 170.37 -251.59 171.59 -254 174 C-255.08 180.34 -252.52 184.25 -249.31 189.64 C-248 192 -248 192 -248 194 C-254.6 194 -261.2 194 -268 194 C-266.72 190.81 -265.55 188.08 -263.94 185.12 C-262.01 181.37 -261.35 178.19 -261 174 C-261.66 174 -262.32 174 -263 174 C-264.38 171.24 -264.19 169.05 -264 166 C-263.01 165.01 -263.01 165.01 -262 164 C-261.77 161.64 -261.77 161.64 -261.92 158.87 C-261.96 157.26 -261.96 157.26 -262.01 155.62 C-262.04 154.45 -262.08 153.28 -262.11 152.08 C-262.15 149.6 -262.18 147.13 -262.2 144.65 C-262.25 140.75 -262.31 136.85 -262.45 132.95 C-263.25 108.96 -263.25 108.96 -255.75 100.85 C-252.66 97.98 -249.42 95.46 -246 93 C-244.59 91.79 -243.19 90.56 -241.81 89.31 C-241.22 88.81 -240.63 88.31 -240.02 87.8 C-236.67 84.82 -233.57 81.59 -230.42 78.4 C-227.72 75.68 -224.99 73.05 -222.06 70.56 C-218.34 67.4 -214.93 63.97 -211.5 60.5 C-207.49 56.45 -203.44 52.56 -199.09 48.87 C-196.28 46.36 -193.65 43.68 -191 41 C-187.78 37.74 -184.56 34.53 -181.06 31.56 C-176.73 27.88 -172.79 23.82 -168.8 19.78 C-165.25 16.21 -161.64 12.79 -157.78 9.56 C-155.84 7.97 -155.84 7.97 -154.09 5.46 C-149.53 1.83 -145.48 2.21 -139.8 2.16 C-138.1 2.11 -138.1 2.11 -136.37 2.07 C-132.61 1.97 -128.86 1.91 -125.1 1.86 C-122.46 1.8 -119.83 1.74 -117.2 1.68 C-111.66 1.55 -106.12 1.44 -100.57 1.34 C-92.87 1.21 -85.17 1.04 -77.47 0.87 C-51.64 0.29 -25.83 -0.09 0 0 Z " fill="#25478F" transform="translate(451,314)"/>
<path d="M0 0 C52.71 0 52.71 0 68.81 15.54 C74.68 22.14 77.9 28.73 81 37 C81.33 24.79 81.66 12.58 82 0 C89.92 0 97.84 0 106 0 C106.01 2.08 106.02 4.16 106.03 6.3 C106.06 13.19 106.12 20.08 106.18 26.97 C106.22 31.14 106.26 35.31 106.27 39.49 C106.29 43.52 106.32 47.56 106.37 51.59 C106.38 53.12 106.39 54.66 106.39 56.19 C106.36 67.69 106.36 67.69 111 78 C116.02 81.92 121.9 81.65 128 81 C132.14 79.67 133.5 78.79 135.81 75.12 C137.72 70.12 138.13 65.63 138.21 60.28 C138.22 59.63 138.23 58.97 138.24 58.3 C138.27 56.15 138.29 54 138.32 51.86 C138.34 50.36 138.36 48.87 138.38 47.37 C138.43 43.45 138.48 39.52 138.53 35.6 C138.58 31.59 138.64 27.58 138.69 23.57 C138.8 15.71 138.9 7.86 139 0 C146.92 0 154.84 0 163 0 C163.07 9.18 163.12 18.36 163.16 27.54 C163.17 31.81 163.19 36.07 163.23 40.33 C163.26 44.46 163.28 48.58 163.28 52.7 C163.29 54.27 163.3 55.83 163.32 57.4 C163.45 70.85 162.61 84.44 153.25 94.97 C143.23 104.5 131.04 105.48 117.89 105.28 C108.08 104.9 99.05 101.99 92 95 C84.11 86.32 82.48 77.4 81 66 C80.73 66.75 80.46 67.5 80.19 68.27 C77.23 76 73.62 81.94 68 88 C67.22 88.84 67.22 88.84 66.42 89.71 C48.56 106.8 22.73 103 0 103 C0 69.01 0 35.02 0 0 Z " fill="#274890" transform="translate(428,499)"/>
<path d="M0 0 C0 0.33 0 0.66 0 1 C-0.57 1 -1.13 1.01 -1.71 1.01 C-28.19 1.34 -53.08 6.66 -77 18 C-77.63 18.3 -78.26 18.6 -78.92 18.91 C-114.41 36.01 -141.41 68.31 -155 105 C-156.9 110.6 -158.49 116.28 -160 122 C-160.24 122.89 -160.47 123.77 -160.71 124.68 C-163.42 135.76 -163.24 147.29 -163.25 158.62 C-163.25 159.76 -163.25 159.76 -163.25 160.91 C-163.25 171.89 -162.77 182.32 -160 193 C-159.78 193.95 -159.57 194.9 -159.34 195.88 C-152.95 222.01 -139.17 246.35 -121 266 C-120.25 266.82 -119.5 267.64 -118.73 268.48 C-101.38 286.64 -78.71 299.26 -55 307 C-53 307.67 -51 308.33 -49 309 C-49 309.33 -49 309.66 -49 310 C-56.53 309.54 -63.5 308.37 -70.75 306.31 C-71.71 306.04 -72.67 305.77 -73.65 305.5 C-99.28 298.13 -121.53 284.83 -140.62 266.33 C-141.79 265.21 -142.97 264.11 -144.17 263.02 C-155.54 252.38 -163.94 238.76 -171 225 C-171.32 224.38 -171.65 223.76 -171.98 223.11 C-176.65 214.01 -179.84 204.78 -182.48 194.91 C-182.99 193.04 -183.53 191.18 -184.07 189.32 C-194.83 150.88 -185.49 108.43 -166.52 74.21 C-160.11 63.17 -151.79 53.21 -143 44 C-142.43 43.36 -141.86 42.73 -141.27 42.07 C-130.21 30.26 -116.31 21.32 -102 14 C-101.34 13.65 -100.68 13.3 -100 12.94 C-70.52 -2.6 -32.45 -8.23 0 0 Z " fill="#47A8D9" transform="translate(433,402)"/>
<path d="M0 0 C0.66 0.33 1.32 0.66 2 1 C1.38 1.58 1.38 1.58 0.75 2.18 C-18.62 20.95 -29.87 43.8 -35 70 C-35.2 70.99 -35.4 71.97 -35.61 72.99 C-39.93 106.31 -28.53 140.1 -8.64 166.65 C12.08 193.44 41.45 212.04 75.25 216.5 C99.22 219.25 123.68 214.71 144.81 203 C145.53 202.67 146.26 202.34 147 202 C147.66 202.33 148.32 202.66 149 203 C119.32 226.08 84.32 234.81 47.01 230.54 C27.26 227.16 7.58 218.58 -8 206 C-8.78 205.38 -8.78 205.38 -9.58 204.74 C-35.53 183.92 -52.41 154.86 -56.56 121.77 C-59.48 94.21 -54.43 68.16 -41 44 C-40.48 43.06 -39.97 42.11 -39.44 41.14 C-35.89 34.93 -31.62 29.45 -27 24 C-26.3 23.16 -25.6 22.33 -24.88 21.46 C-17.6 13.06 -9.13 6.29 0 0 Z " fill="#274890" transform="translate(357,454)"/>
<path d="M0 0 C0.92 0.01 1.83 0.01 2.78 0.02 C4.26 0.02 4.26 0.02 5.78 0.03 C6.82 0.03 7.86 0.04 8.93 0.05 C10.5 0.06 10.5 0.06 12.1 0.06 C14.69 0.08 17.28 0.09 19.87 0.11 C27.53 17.92 34.83 35.86 41.98 53.87 C44.41 59.98 46.86 66.08 49.32 72.17 C50.43 74.94 51.54 77.7 52.65 80.47 C53.38 82.27 54.1 84.07 54.83 85.87 C55.84 88.38 56.85 90.89 57.86 93.4 C58.32 94.53 58.32 94.53 58.78 95.68 C60.87 100.89 60.87 100.89 60.87 103.11 C52.62 103.11 44.37 103.11 35.87 103.11 C34.71 100.21 33.56 97.3 32.37 94.3 C32 93.39 31.64 92.48 31.26 91.54 C30.83 90.45 30.83 90.45 30.4 89.34 C30.1 88.61 29.81 87.87 29.51 87.11 C28.87 85.11 28.87 85.11 28.87 82.11 C15.67 82.11 2.47 82.11 -11.13 82.11 C-12.12 85.74 -13.11 89.37 -14.13 93.11 C-16.11 98.06 -16.11 98.06 -18.13 103.11 C-26.38 103.11 -34.63 103.11 -43.13 103.11 C-42.27 98.8 -41.16 95.38 -39.52 91.33 C-39.25 90.67 -38.98 90.01 -38.71 89.32 C-37.82 87.13 -36.93 84.94 -36.04 82.75 C-35.42 81.21 -34.79 79.66 -34.17 78.11 C-32.52 74.02 -30.86 69.94 -29.2 65.85 C-27.56 61.79 -25.91 57.72 -24.27 53.66 C-22.35 48.92 -20.44 44.18 -18.52 39.44 C-15.66 32.38 -12.81 25.32 -10 18.24 C-9.29 16.48 -9.29 16.48 -8.58 14.68 C-7.72 12.52 -6.86 10.36 -6.01 8.19 C-5.64 7.26 -5.27 6.33 -4.89 5.37 C-4.57 4.57 -4.25 3.76 -3.93 2.93 C-2.71 0.14 -2.71 0.14 0 0 Z " fill="#264790" transform="translate(701.133056640625,498.886474609375)"/>
<path d="M0 0 C7.92 0 15.84 0 24 0 C24.01 2.08 24.02 4.16 24.03 6.3 C24.06 13.19 24.12 20.08 24.18 26.97 C24.22 31.14 24.26 35.31 24.27 39.49 C24.29 43.52 24.32 47.56 24.37 51.59 C24.38 53.12 24.39 54.66 24.39 56.19 C24.36 67.69 24.36 67.69 29 78 C34.02 81.92 39.9 81.65 46 81 C50.14 79.67 51.5 78.79 53.81 75.12 C55.72 70.12 56.13 65.63 56.21 60.28 C56.22 59.63 56.23 58.97 56.24 58.3 C56.27 56.15 56.29 54 56.32 51.86 C56.34 50.36 56.36 48.87 56.38 47.37 C56.43 43.45 56.48 39.52 56.53 35.6 C56.58 31.59 56.64 27.58 56.69 23.57 C56.8 15.71 56.9 7.86 57 0 C64.92 0 72.84 0 81 0 C81.07 9.18 81.12 18.36 81.16 27.54 C81.17 31.81 81.19 36.07 81.23 40.33 C81.26 44.46 81.28 48.58 81.28 52.7 C81.29 54.27 81.3 55.83 81.32 57.4 C81.45 70.85 80.61 84.44 71.25 94.97 C61.23 104.5 49.04 105.48 35.89 105.28 C26.08 104.9 17.05 101.99 10 95 C3.01 87.31 0.65 79.28 -0.19 69.12 C-0.27 68.31 -0.35 67.5 -0.44 66.66 C-1.86 50.82 -0.93 34.74 -0.5 18.88 C-0.45 17.03 -0.4 15.18 -0.36 13.34 C-0.24 8.89 -0.12 4.45 0 0 Z " fill="#284991" transform="translate(510,499)"/>
<path d="M0 0 C55.91 0 55.91 0 66.48 10.31 C73.2 17.79 73.71 27.12 73.44 36.69 C72.87 44.81 69.05 51.41 63.25 57 C51.52 66.21 38.63 65 24 65 C24 77.54 24 90.08 24 103 C16.08 103 8.16 103 0 103 C0 69.01 0 35.02 0 0 Z " fill="#274991" transform="translate(594,499)"/>
<path d="M0 0 C19.8 0 39.6 0 60 0 C60 6.93 60 13.86 60 21 C48.12 21 36.24 21 24 21 C24 27.6 24 34.2 24 41 C35.22 41 46.44 41 58 41 C58 47.93 58 54.86 58 62 C46.78 62 35.56 62 24 62 C24 68.6 24 75.2 24 82 C35.88 82 47.76 82 60 82 C60 88.93 60 95.86 60 103 C40.2 103 20.4 103 0 103 C0 69.01 0 35.02 0 0 Z " fill="#294A91" transform="translate(365,499)"/>
<path d="M0 0 C23.59 -3.17 23.59 -3.17 30.49 1.79 C34.62 6.45 37.3 11.87 39.85 17.52 C41.37 20.81 43.2 23.72 45.19 26.75 C45.7 27.59 46.21 28.43 46.73 29.3 C47.36 30.14 47.36 30.14 48 31 C48.66 31 49.32 31 50 31 C51.59 28.68 53.05 26.35 54.5 23.94 C55.18 22.87 55.18 22.87 55.88 21.78 C58.19 18.13 60.24 14.59 61.9 10.6 C63.9 6.22 65.69 2.44 70 0 C79.18 -1.85 88.75 -0.91 98 0 C96.73 3.44 95.25 6.36 93.19 9.39 C92.63 10.22 92.06 11.06 91.48 11.92 C90.87 12.81 90.26 13.7 89.64 14.61 C88.69 16.01 88.69 16.01 87.73 17.43 C85.72 20.39 83.7 23.35 81.69 26.31 C79.68 29.26 77.68 32.21 75.68 35.17 C74.43 37 73.19 38.83 71.94 40.67 C70.8 42.34 69.67 44.01 68.56 45.69 C67.57 47.16 66.55 48.6 65.49 50.01 C61.54 55.56 61.27 60.36 61.29 67.06 C61.28 68.09 61.26 69.13 61.25 70.19 C61.2 73.46 61.2 76.73 61.19 80 C61.16 82.23 61.14 84.46 61.11 86.68 C61.04 92.12 61.02 97.56 61 103 C53.08 103 45.16 103 37 103 C37.26 100.12 37.53 97.24 37.8 94.27 C39.93 61.51 30.53 41.85 10.44 16.43 C0 3.15 0 3.15 0 0 Z " fill="#274890" transform="translate(747,499)"/>
<path d="M0 0 C10.52 0 16.71 0.54 24.38 7.75 C31.39 15.33 33.44 23.04 33.34 33.22 C32.55 42.08 28.83 49.43 22.23 55.38 C14.75 60.83 9.48 61 0 61 C0 40.87 0 20.74 0 0 Z " fill="#FDFDFE" transform="translate(452,520)"/>
<path d="M0 0 C3.29 3.77 4.86 8.16 6.69 12.75 C7.78 15.47 8.87 18.19 10 21 C16.93 21.33 23.86 21.66 31 22 C24.8 29.23 24.8 29.23 20.5 32.56 C17.67 35.31 17.01 36.37 16.94 40.38 C17.3 42.78 17.75 45.17 18.28 47.54 C19.02 51.12 19.11 54.35 19 58 C13.69 56.56 9.35 53.97 4.68 51.14 C1.39 49.74 0.36 49.83 -3 51 C-5.82 52.26 -8.57 53.64 -11.31 55.06 C-12.42 55.63 -12.42 55.63 -13.56 56.21 C-15.37 57.13 -17.19 58.06 -19 59 C-18.11 50.61 -18.11 50.61 -17.44 46.94 C-17.29 45.97 -17.15 45 -17 44 C-16.63 42.17 -16.63 42.17 -16.25 40.31 C-16.24 36.37 -18.12 34.42 -20.79 31.66 C-23.14 29.38 -25.56 27.19 -28 25 C-28.99 24.01 -29.98 23.02 -31 22 C-23.74 22 -16.48 22 -9 22 C-8.01 19.03 -7.02 16.06 -6 13 C-4.98 10.63 -3.92 8.27 -2.81 5.94 C-2.28 4.81 -1.75 3.69 -1.21 2.53 C-0.81 1.69 -0.41 0.86 0 0 Z " fill="#46A8D9" transform="translate(568,384)"/>
<path d="M0 0 C3.5 4.29 5.04 8.86 7 14 C13.93 14.5 13.93 14.5 21 15 C15.11 22.23 15.11 22.23 11 24 C11.14 24.58 11.29 25.16 11.44 25.76 C12.51 30.27 13.24 34.33 13 39 C9.84 38.04 7.21 37.14 4.44 35.31 C2.13 33.81 2.13 33.81 -0.25 34.06 C-4.29 35.44 -8.14 37.19 -12 39 C-11.91 38.01 -11.81 37.02 -11.72 36 C-11.09 28.3 -11.09 28.3 -13.78 21.26 C-15.77 19.35 -17.8 17.66 -20 16 C-20 15.67 -20 15.34 -20 15 C-15.38 15 -10.76 15 -6 15 C-5.57 13.64 -5.13 12.28 -4.69 10.88 C-3.42 7.06 -1.91 3.54 0 0 Z " fill="#2A4B92" transform="translate(498,322)"/>
<path d="M0 0 C16.29 0 16.29 0 22.15 4.74 C25.11 8.35 24.55 11.65 24.38 16.15 C23.87 19.94 23.01 21.61 20 24 C13.08 28.27 9.07 27 0 27 C0 18.09 0 9.18 0 0 Z " fill="#FDFDFE" transform="translate(618,518)"/>
<path d="M0 0 C0.66 0 1.32 0 2 0 C3.67 4.27 5.34 8.54 7 12.81 C7.48 14.03 7.95 15.24 8.45 16.49 C8.9 17.66 9.35 18.82 9.81 20.02 C10.23 21.09 10.65 22.17 11.08 23.27 C12 26 12 26 12 29 C4.74 29 -2.52 29 -10 29 C-9.26 24.55 -8.55 21.44 -6.93 17.38 C-6.53 16.36 -6.13 15.35 -5.71 14.3 C-5.29 13.25 -4.87 12.2 -4.44 11.12 C-4.01 10.06 -3.59 8.99 -3.15 7.88 C-2.11 5.25 -1.06 2.63 0 0 Z " fill="#F6F7FA" transform="translate(709,532)"/>
<path d="M0 0 C0.66 0 1.32 0 2 0 C2.99 2.97 3.98 5.94 5 9 C7.97 9 10.94 9 14 9 C13.15 9.78 12.31 10.57 11.44 11.38 C9.53 13.6 9.01 14.66 8.89 17.62 C9.16 20.11 9.51 22.55 10 25 C8.64 24.54 8.64 24.54 7.25 24.06 C6.18 23.71 5.11 23.36 4 23 C3.36 22.73 2.72 22.46 2.06 22.19 C-1.37 21.88 -3.93 23.53 -7 25 C-6.94 24.35 -6.88 23.7 -6.82 23.02 C-6.47 16.71 -6.47 16.71 -9.5 11.38 C-10.32 10.59 -11.15 9.81 -12 9 C-9.03 9 -6.06 9 -3 9 C-2.01 6.03 -1.02 3.06 0 0 Z " fill="#49A9DA" transform="translate(453,438)"/>
<path d="M0 0 C0.66 0.33 1.32 0.66 2 1 C0.55 2.17 -0.91 3.34 -2.38 4.5 C-3.19 5.15 -4 5.8 -4.84 6.47 C-7 8 -7 8 -9 8 C-9.33 7.01 -9.66 6.02 -10 5 C-8.38 4.14 -6.75 3.28 -5.12 2.44 C-4.22 1.96 -3.32 1.49 -2.38 1 C-1.2 0.5 -1.2 0.5 0 0 Z " fill="#4F6AA5" transform="translate(504,656)"/>
</svg>
